<?xml version="1.0" encoding="utf-8"?>
<!-- Generator: Adobe Illustrator 27.1.1, SVG Export Plug-In . SVG Version: 6.00 Build 0)  -->
<svg version="1.1" id="Capa_1" xmlns="http://www.w3.org/2000/svg" xmlns:xlink="http://www.w3.org/1999/xlink" x="0px" y="0px"
	 viewBox="0 0 792 612" style="enable-background:new 0 0 792 612;" xml:space="preserve">
<style type="text/css">
	.st0{fill:#064663;}
	.st1{fill:#121E31;}
	.st2{fill:#FFFFFF;}
	.st3{fill:#F9DBBB;}
</style>
<path class="st0" d="M449.47,192.88c0,0-13.24,0.47-17.92-15.29c0,0,15.09-2.35,19.09,12.71l1.88,2.59c0,0,0-12.97,3.76-15.43
	c0,0,12,7.72,4.24,24.51c0,0,1.65,5.74,1.41,7.15c0,0,3.53-12,8.47-14.82c0,0,9.18,12.47-2.82,25.65c0,0,0.94,8,0.71,9.41
	c-0.24,1.41,0.24-1.41,0.24-1.41s7.53-11.29,11.53-11.53c0,0,5.41,15.06-10.35,24c0,0-0.94,11.53-0.71,11.29
	c0.24-0.24,0.24-0.24,0.24-0.24s5.41-8.47,14.59-8.94c0,0-0.47,16.94-18.12,19.53c0,0-0.94,6.82-2.82,7.76
	c0,0,11.06-3.53,15.76-3.06c0,0-0.74,13.41-20.96,13.88l-5.39,7.29c0,0,13.41-3.24,17.65,1.2c0,0-7.06,12.86-26.82,7.71
	c0,0-2.35,4.5-5.18,5.91c0,0,15.29-0.24,16.47,5.18c0,0-8.47,13.18-27.65,3.06c0,0-7.88,4.82-8.59,3.82c0,0,12.24,5.12,14.59,9.83
	c0,0-11.53,5.88-25.65-4.47l-1.65-0.71c0,0-24.71,5.65-25.65,9.65h-4c0,0,7.18-8.47,29.41-12.35c0,0-2.71-14.12,13.06-23.53
	c0,0,1.41,12.47-1.53,18.59l7.41-3.53c0,0-6.71-16.47,6.59-26.94c0,0,6.47,2.47,3.18,20l7.41-6.12c0,0-8.71-10.24,1.88-26.71
	c0,0,4.82,2.59,6.12,17.76c0,0,4.59-4.47,4.94-6.47c0.35-2-10.59-7.18-4.24-25.41c0,0,8.59,3.76,9.53,15.29c0,0,1.88-4.59,4-8.59
	c0,0-12.82-3.06-11.53-22c0,0,12.24,2.59,13.53,11.88c0,0,2.12-1.53,1.06-10.82c0,0-13.88-1.41-17.65-17.53
	c0,0,11.06-0.24,16.35,6.71c0,0,1.06-6.24-0.24-8.35c0,0-15.53,2.59-23.18-11.88c0,0,7.88-3.06,17.88,1.53c0,0-0.94-3.41-2.82-6.35
	c0,0-10,7.18-23.41-6.12c0,0,7.06-4.47,16.47-3.41L449.47,192.88z"/>
<path class="st1" d="M339.12,192.88c0,0,13.24,0.47,17.92-15.29c0,0-15.09-2.35-19.09,12.71l-1.88,2.59c0,0,0-12.97-3.76-15.43
	c0,0-12,7.72-4.24,24.51c0,0-1.65,5.74-1.41,7.15c0,0-3.53-12-8.47-14.82c0,0-9.18,12.47,2.82,25.65c0,0-0.94,8-0.71,9.41
	c0.24,1.41-0.24-1.41-0.24-1.41s-7.53-11.29-11.53-11.53c0,0-5.41,15.06,10.35,24c0,0,0.94,11.53,0.71,11.29
	c-0.24-0.24-0.24-0.24-0.24-0.24s-5.41-8.47-14.59-8.94c0,0,0.47,16.94,18.12,19.53c0,0,0.94,6.82,2.82,7.76
	c0,0-11.06-3.53-15.76-3.06c0,0,0.74,13.41,20.96,13.88l5.39,7.29c0,0-13.41-3.24-17.65,1.2c0,0,7.06,12.86,26.82,7.71
	c0,0,2.35,4.5,5.18,5.91c0,0-15.29-0.24-16.47,5.18c0,0,8.47,13.18,27.65,3.06c0,0,7.88,4.82,8.59,3.82c0,0-12.24,5.12-14.59,9.83
	c0,0,11.53,5.88,25.65-4.47l1.65-0.71c0,0,24.71,5.65,25.65,9.65h4c0,0-7.18-8.47-29.41-12.35c0,0,2.71-14.12-13.06-23.53
	c0,0-1.41,12.47,1.53,18.59l-7.41-3.53c0,0,6.71-16.47-6.59-26.94c0,0-6.47,2.47-3.18,20l-7.41-6.12c0,0,8.71-10.24-1.88-26.71
	c0,0-4.82,2.59-6.12,17.76c0,0-4.59-4.47-4.94-6.47c-0.35-2,10.59-7.18,4.24-25.41c0,0-8.59,3.76-9.53,15.29c0,0-1.88-4.59-4-8.59
	c0,0,12.82-3.06,11.53-22c0,0-12.24,2.59-13.53,11.88c0,0-2.12-1.53-1.06-10.82c0,0,13.88-1.41,17.65-17.53
	c0,0-11.06-0.24-16.35,6.71c0,0-1.06-6.24,0.24-8.35c0,0,15.53,2.59,23.18-11.88c0,0-7.88-3.06-17.88,1.53c0,0,0.94-3.41,2.82-6.35
	c0,0,10,7.18,23.41-6.12c0,0-7.06-4.47-16.47-3.41L339.12,192.88z"/>
<path class="st0" d="M359.44,209.94c0,0,19.29,1.41,36.65-10.24c0,0,16.65,10.7,36.41,10.29c0,0,6.24,57.48-36.41,76.89
	C396.09,286.88,355.56,270.65,359.44,209.94z"/>
<path class="st2" d="M364.11,214.51c0,0,16.83,1.22,31.97-8.83c0,0,14.52,9.23,31.76,8.88c0,0,5.44,49.6-31.76,66.35
	C396.08,280.91,360.72,266.9,364.11,214.51z"/>
<g>
	<polygon class="st3" points="377.06,226.35 395.88,216.94 414.94,226.35 	"/>
	<rect x="380.35" y="228.47" class="st3" width="6.12" height="15.29"/>
	<rect x="406.24" y="228.47" class="st3" width="6.12" height="15.29"/>
	<rect x="393.18" y="228.47" class="st3" width="6.12" height="15.29"/>
	<rect x="379.41" y="245.41" class="st3" width="34.12" height="3.29"/>
	<rect x="377.06" y="251.88" class="st3" width="37.88" height="6"/>
</g>
</svg>
